<svg xmlns="http://www.w3.org/2000/svg" viewBox="0 0 138.02 30.67"><defs><style>.cls-1{fill:#ffffff;}</style></defs><g id="Layer_2" data-name="Layer 2"><g id="Layer_1-2" data-name="Layer 1"><polygon class="cls-1" points="0 4.17 15.1 4.17 12.86 8.22 4.92 8.22 4.92 15.54 9.99 15.54 12.21 19.58 4.92 19.58 4.92 25.82 15.64 25.82 18.07 30.24 0 30.24 0 4.17"/><polygon class="cls-1" points="112.81 8.74 106.48 8.74 106.48 0 101.56 3.92 101.56 8.74 99.01 8.74 99.01 12.79 101.56 12.79 101.56 30.24 106.48 30.24 106.48 12.79 110.57 12.79 112.81 8.74"/><path class="cls-1" d="M91.06,8.74v1.67l-.15-.11a10.53,10.53,0,0,0-6.22-2A10.86,10.86,0,0,0,73.9,19.46,10.86,10.86,0,0,0,84.69,30.63a9.67,9.67,0,0,0,6.21-2.46l.16-.13v2.2h4.19V8.74ZM84.79,26c-3.38,0-6-2.94-6-6.69s2.6-6.6,6-6.6,6,2.84,6,6.6S88.15,26,84.79,26Z"/><polygon class="cls-1" points="74.11 8.69 68.82 8.69 62.43 21.02 62.35 20.86 56.04 8.69 50.76 8.69 62.39 30.64 74.11 8.69"/><path class="cls-1" d="M39.27,26A5.62,5.62,0,0,1,36,24.22l-.09-.1.12-.05L50.85,17.9a6.38,6.38,0,0,0-.21-1.65A10.61,10.61,0,0,0,42.13,8.5a11.29,11.29,0,0,0-1.83-.15A10.56,10.56,0,0,0,34,10.41a11.36,11.36,0,0,0-4.4,7.31,10.86,10.86,0,0,0,8.78,12.81,10.59,10.59,0,0,0,11.35-6.41l-4.66-.78A5.9,5.9,0,0,1,39.27,26Zm-4.91-5.85a7.35,7.35,0,0,1,.09-1.76A6.87,6.87,0,0,1,37,14a5.76,5.76,0,0,1,4.54-1.15,5.69,5.69,0,0,1,4,2.76l.06.09L34.37,20.26Z"/><path class="cls-1" d="M122.19,26A5.62,5.62,0,0,1,119,24.22l-.09-.1,14.9-6.22a6.38,6.38,0,0,0-.21-1.65,10.61,10.61,0,0,0-8.51-7.75,11.26,11.26,0,0,0-1.82-.15,10.92,10.92,0,0,0-10.68,9.37,10.86,10.86,0,0,0,8.78,12.81,10.59,10.59,0,0,0,11.35-6.41L128,23.34A5.88,5.88,0,0,1,122.19,26Zm-4.91-5.85a7.35,7.35,0,0,1,.09-1.76,6.87,6.87,0,0,1,2.5-4.35,5.76,5.76,0,0,1,4.54-1.15,5.69,5.69,0,0,1,4,2.76l.06.09-.1,0-11.06,4.49Z"/><path id="Path_5" data-name="Path 5" class="cls-1" d="M20.55,0V30.32h4.92V3.92Z"/><path class="cls-1" d="M130.82,5.47A3.6,3.6,0,1,1,134.42,9,3.55,3.55,0,0,1,130.82,5.47Zm6.33,0a2.74,2.74,0,1,0-2.73,2.78A2.77,2.77,0,0,0,137.15,5.47Zm-4.08-1.82h1.59A1.21,1.21,0,0,1,136,4.85a1.05,1.05,0,0,1-.67,1l.82,1.48h-1l-.62-1.24H134V7.29h-.92Zm1.54,1.58a.35.35,0,0,0,.38-.38.35.35,0,0,0-.38-.39H134v.77Z"/></g></g></svg>